<svg xmlns="http://www.w3.org/2000/svg" viewBox="0 0 196.81 8"><defs><style>.\30 2ed8bb2-f983-4146-94b9-e85ccf46d2e5{fill:none;stroke:#FBD779;stroke-miterlimit:10;stroke-width:4px;}</style></defs><title>wave</title><g id="543e694f-2a4c-4a6e-a257-60e1c59fb191" data-name="圖層 2"><g id="62a1907c-7a8d-4027-bd52-cc9fc1f6b4b4" data-name="圖層 1"><path class="02ed8bb2-f983-4146-94b9-e85ccf46d2e5" d="M0,1C6.15,1,6.15,7,12.29,7s6.15-6,12.3-6,6.15,6,12.3,6S43,1,49.19,1s6.15,6,12.3,6,6.15-6,12.3-6,6.15,6,12.3,6,6.15-6,12.3-6,6.15,6,12.3,6,6.15-6,12.3-6,6.15,6,12.3,6,6.15-6,12.3-6,6.15,6,12.3,6,6.15-6,12.3-6,6.16,6,12.31,6,6.15-6,12.31-6"/></g></g></svg>