<?xml version="1.0" encoding="UTF-8"?>
<svg xmlns="http://www.w3.org/2000/svg" xmlns:xlink="http://www.w3.org/1999/xlink" width="257pt" height="120.61pt" viewBox="0 0 257.95 120.61" version="1.1">
<defs>
<clipPath id="clip1">
  <path d="M 0 0 L 121 0 L 121 120.609375 L 0 120.609375 Z M 0 0 "/>
</clipPath>
<clipPath id="clip2">
  <path d="M 149 30 L 257.949219 30 L 257.949219 105 L 149 105 Z M 149 30 "/>
</clipPath>
</defs>
<g id="surface1">
<g clip-path="url(#clip1)" clip-rule="nonzero">
<path style=" stroke:none;fill-rule:nonzero;fill:rgb(45.498657%,34.098816%,20.399475%);fill-opacity:1;" d="M 60.300781 0.00390625 C 26.996094 0.00390625 0 27.003906 0 60.308594 C 0 89.832031 21.21875 114.394531 49.234375 119.59375 L 51.585938 95.125 C 55.1875 52.730469 68.816406 38.28125 68.816406 38.28125 C 60.300781 67.886719 60.300781 112.523438 60.300781 112.523438 C 60.300781 112.523438 57.246094 113.296875 55.582031 114.148438 C 51.453125 116.25 49.601563 119.074219 49.28125 119.601563 C 52.855469 120.261719 56.539063 120.609375 60.300781 120.609375 C 68.640625 120.609375 76.585938 118.917969 83.8125 115.855469 C 86.34375 112.085938 89.382813 105.367188 89.441406 94.777344 C 89.441406 94.777344 86.832031 94.941406 84.097656 95.871094 C 76.507813 98.453125 73.894531 100.601563 73.894531 100.601563 C 73.894531 100.601563 75.335938 75.792969 76.101563 67.5625 C 79.527344 30.765625 104.789063 23.367188 104.789063 23.367188 L 101.652344 96.472656 C 101.367188 100.210938 100.605469 103.425781 99.441406 106.179688 C 112.394531 95.117188 120.605469 78.671875 120.605469 60.308594 C 120.605469 27.003906 93.605469 0.00390625 60.300781 0.00390625 "/>
</g>
<g clip-path="url(#clip2)" clip-rule="nonzero">
<path style=" stroke:none;fill-rule:nonzero;fill:rgb(45.498657%,34.098816%,20.399475%);fill-opacity:1;" d="M 252.039063 93.199219 C 251.328125 93.199219 250.753906 93.4375 250.308594 93.917969 C 249.871094 94.394531 249.589844 95.082031 249.464844 95.972656 L 254.4375 95.972656 L 254.4375 95.6875 C 254.421875 94.894531 254.207031 94.285156 253.796875 93.855469 C 253.382813 93.417969 252.796875 93.199219 252.039063 93.199219 M 252.445313 104.183594 C 250.484375 104.183594 248.886719 103.582031 247.648438 102.378906 C 246.421875 101.175781 245.804688 99.570313 245.804688 97.566406 L 245.804688 97.222656 C 245.804688 95.875 246.0625 94.675781 246.585938 93.621094 C 247.105469 92.558594 247.839844 91.742188 248.785156 91.171875 C 249.742188 90.59375 250.832031 90.304688 252.050781 90.304688 C 253.882813 90.304688 255.320313 90.882813 256.371094 92.039063 C 257.425781 93.191406 257.953125 94.828125 257.953125 96.949219 L 257.953125 98.40625 L 249.429688 98.40625 C 249.546875 99.28125 249.890625 99.984375 250.46875 100.511719 C 251.054688 101.039063 251.792969 101.304688 252.683594 101.304688 C 254.0625 101.304688 255.136719 100.804688 255.910156 99.804688 L 257.667969 101.773438 C 257.132813 102.53125 256.40625 103.125 255.488281 103.554688 C 254.574219 103.976563 253.5625 104.183594 252.445313 104.183594 M 238.605469 102.578125 C 237.722656 103.648438 236.503906 104.183594 234.945313 104.183594 C 233.511719 104.183594 232.414063 103.773438 231.652344 102.949219 C 230.902344 102.125 230.519531 100.914063 230.503906 99.324219 L 230.503906 90.554688 L 234.078125 90.554688 L 234.078125 99.199219 C 234.078125 100.59375 234.714844 101.289063 235.984375 101.289063 C 237.195313 101.289063 238.027344 100.871094 238.480469 100.027344 L 238.480469 90.554688 L 242.070313 90.554688 L 242.070313 103.9375 L 238.703125 103.9375 Z M 226.050781 103.9375 L 222.339844 103.9375 L 222.339844 96.21875 L 215.105469 96.21875 L 215.105469 103.9375 L 211.390625 103.9375 L 211.390625 85.925781 L 215.105469 85.925781 L 215.105469 93.226563 L 222.339844 93.226563 L 222.339844 85.925781 L 226.050781 85.925781 Z M 190.5 97.382813 C 190.5 98.652344 190.738281 99.625 191.21875 100.300781 C 191.695313 100.96875 192.382813 101.304688 193.269531 101.304688 C 194.136719 101.304688 194.8125 100.972656 195.300781 100.3125 C 195.789063 99.644531 196.03125 98.582031 196.03125 97.121094 C 196.03125 95.875 195.789063 94.910156 195.300781 94.226563 C 194.8125 93.542969 194.128906 93.199219 193.246094 93.199219 C 192.371094 93.199219 191.695313 93.542969 191.21875 94.226563 C 190.738281 94.902344 190.5 95.953125 190.5 97.382813 M 186.925781 97.121094 C 186.925781 95.792969 187.183594 94.609375 187.691406 93.570313 C 188.203125 92.53125 188.9375 91.726563 189.894531 91.160156 C 190.859375 90.589844 191.976563 90.304688 193.246094 90.304688 C 195.054688 90.304688 196.523438 90.859375 197.664063 91.964844 C 198.8125 93.066406 199.449219 94.570313 199.582031 96.46875 L 199.605469 97.382813 C 199.605469 99.433594 199.03125 101.085938 197.886719 102.328125 C 196.738281 103.566406 195.203125 104.183594 193.269531 104.183594 C 191.34375 104.183594 189.800781 103.566406 188.644531 102.328125 C 187.5 101.09375 186.925781 99.410156 186.925781 97.28125 Z M 180.171875 100.238281 C 180.171875 99.804688 179.953125 99.460938 179.519531 99.214844 C 179.089844 98.957031 178.394531 98.730469 177.4375 98.53125 C 174.253906 97.863281 172.664063 96.511719 172.664063 94.472656 C 172.664063 93.285156 173.152344 92.296875 174.136719 91.507813 C 175.125 90.707031 176.414063 90.304688 178.007813 90.304688 C 179.707031 90.304688 181.0625 90.707031 182.078125 91.507813 C 183.101563 92.304688 183.609375 93.34375 183.609375 94.621094 L 180.035156 94.621094 C 180.035156 94.113281 179.871094 93.691406 179.542969 93.359375 C 179.214844 93.023438 178.695313 92.855469 177.996094 92.855469 C 177.394531 92.855469 176.929688 92.988281 176.597656 93.261719 C 176.269531 93.535156 176.101563 93.882813 176.101563 94.300781 C 176.101563 94.695313 176.289063 95.019531 176.660156 95.265625 C 177.039063 95.507813 177.675781 95.714844 178.5625 95.898438 C 179.453125 96.070313 180.207031 96.269531 180.816406 96.492188 C 182.703125 97.183594 183.648438 98.382813 183.648438 100.089844 C 183.648438 101.3125 183.125 102.300781 182.078125 103.058594 C 181.03125 103.808594 179.679688 104.183594 178.019531 104.183594 C 176.898438 104.183594 175.898438 103.988281 175.027344 103.59375 C 174.160156 103.1875 173.480469 102.640625 172.984375 101.945313 C 172.488281 101.246094 172.242188 100.492188 172.242188 99.683594 L 175.632813 99.683594 C 175.664063 100.316406 175.898438 100.804688 176.339844 101.140625 C 176.773438 101.480469 177.359375 101.648438 178.09375 101.648438 C 178.777344 101.648438 179.296875 101.523438 179.640625 101.265625 C 179.996094 101.003906 180.171875 100.660156 180.171875 100.238281 M 170.449219 88.933594 L 164.933594 88.933594 L 164.933594 103.9375 L 161.222656 103.9375 L 161.222656 88.933594 L 155.777344 88.933594 L 155.777344 85.925781 L 170.449219 85.925781 Z M 243.363281 30.613281 L 236.828125 30.613281 L 236.828125 50.425781 C 236.828125 56.101563 233.433594 66.234375 222.640625 71.503906 C 223.90625 72.972656 225.78125 75.761719 226.539063 77.28125 C 234.800781 73.175781 239.105469 65.015625 240.070313 60.8125 C 241.132813 64.917969 245.390625 73.226563 253.546875 77.332031 C 254.511719 75.507813 256.234375 72.71875 257.550781 71.199219 C 246.707031 65.828125 243.363281 56.148438 243.363281 50.425781 Z M 220.664063 30.15625 C 217.925781 37.351563 213.265625 44.546875 208.449219 49.105469 C 209.464844 50.527344 211.035156 53.820313 211.59375 55.238281 C 213.011719 53.820313 214.429688 52.25 215.800781 50.476563 L 215.800781 77.28125 L 221.523438 77.28125 L 221.523438 41.761719 C 223.347656 38.566406 224.921875 35.222656 226.234375 31.980469 Z M 229.023438 56.707031 C 231.65625 52.554688 232.722656 46.167969 232.722656 40.089844 L 227.148438 39.328125 C 226.945313 44.800781 225.882813 50.828125 223.550781 54.121094 Z M 249.949219 39.226563 C 249.140625 43.9375 247.417969 50.171875 245.847656 54.175781 L 251.316406 55.695313 C 252.988281 51.945313 254.96875 46.117188 256.539063 40.796875 Z M 197.554688 44.039063 L 197.554688 38.3125 L 177.894531 38.3125 C 178.859375 36.238281 179.671875 34.160156 180.378906 32.03125 L 174.550781 30.5625 C 172.269531 37.808594 168.269531 45.105469 163.8125 49.664063 C 165.074219 50.625 167.457031 52.753906 168.421875 53.871094 C 170.699219 51.234375 173.03125 47.789063 175.058594 44.039063 L 176.984375 44.039063 L 176.984375 77.382813 L 183.164063 77.382813 L 183.164063 66.132813 L 196.949219 66.132813 L 196.949219 60.558594 L 183.164063 60.558594 L 183.164063 54.832031 L 196.289063 54.832031 L 196.289063 49.359375 L 183.164063 49.359375 L 183.164063 44.039063 Z M 161.226563 30.257813 C 158.691406 37.453125 154.28125 44.648438 149.671875 49.207031 C 150.734375 50.730469 152.460938 54.175781 153.015625 55.644531 C 154.03125 54.527344 155.09375 53.261719 156.15625 51.996094 L 156.15625 77.332031 L 162.238281 77.332031 L 162.238281 42.621094 C 164.113281 39.226563 165.785156 35.628906 167.101563 32.082031 "/>
</g>
</g>
</svg>
