<svg width="120" height="61" viewBox="0 0 120 61" fill="none" xmlns="http://www.w3.org/2000/svg">
<path d="M82.7548 18.826C81.8548 21.382 80.2888 23.938 78.6508 25.558C79.0288 26.098 79.6408 27.322 79.8388 27.844C80.1988 27.448 80.5768 26.998 80.9548 26.548V35.548H83.1148V23.218C83.7808 22.012 84.3748 20.734 84.8428 19.474L82.7548 18.826ZM95.6608 23.722V21.688H88.6768C89.0188 20.95 89.3068 20.212 89.5588 19.456L87.4888 18.934C86.6788 21.508 85.2568 24.1 83.6728 25.72C84.1228 26.062 84.9688 26.818 85.3108 27.214C86.1208 26.278 86.9488 25.054 87.6688 23.722H88.3528V35.566H90.5488V31.57H95.4448V29.59H90.5488V27.556H95.2108V25.612H90.5488V23.722H95.6608ZM116.793 22.012C116.505 23.686 115.893 25.9 115.335 27.322L117.279 27.862C117.873 26.53 118.575 24.46 119.133 22.57L116.793 22.012ZM109.359 28.222C110.295 26.746 110.673 24.478 110.673 22.318L108.693 22.048C108.621 23.992 108.243 26.134 107.415 27.304L109.359 28.222ZM106.389 18.79C105.417 21.346 103.761 23.902 102.051 25.522C102.411 26.026 102.969 27.196 103.167 27.7C103.671 27.196 104.175 26.638 104.661 26.008V35.53H106.695V22.912C107.343 21.778 107.901 20.59 108.369 19.438L106.389 18.79ZM114.453 18.952H112.131V25.99C112.131 28.006 110.925 31.606 107.091 33.478C107.541 34 108.207 34.99 108.477 35.53C111.411 34.072 112.941 31.174 113.283 29.68C113.661 31.138 115.173 34.09 118.071 35.548C118.413 34.9 119.025 33.91 119.493 33.37C115.641 31.462 114.453 28.024 114.453 25.99V18.952ZM84.7992 41.0771H82.6215V47H81.1566V41.0771H79.0082V39.8906H84.7992V41.0771ZM88.3365 45.54C88.3365 45.3675 88.2503 45.2324 88.0777 45.1348C87.9085 45.0339 87.635 44.9443 87.2574 44.8662C86.0009 44.6025 85.3727 44.0687 85.3727 43.2646C85.3727 42.7959 85.5663 42.4053 85.9537 42.0928C86.3443 41.777 86.8538 41.6191 87.482 41.6191C88.1526 41.6191 88.6881 41.777 89.0885 42.0928C89.4921 42.4085 89.6939 42.8187 89.6939 43.3232H88.2828C88.2828 43.1214 88.2177 42.9554 88.0875 42.8252C87.9573 42.6917 87.7538 42.625 87.4771 42.625C87.2395 42.625 87.0556 42.6787 86.9254 42.7861C86.7952 42.8936 86.7301 43.0303 86.7301 43.1963C86.7301 43.3525 86.8033 43.4795 86.9498 43.5771C87.0995 43.6715 87.3502 43.7546 87.7018 43.8262C88.0533 43.8945 88.3495 43.9727 88.5904 44.0605C89.3359 44.334 89.7086 44.8076 89.7086 45.4814C89.7086 45.9632 89.5019 46.3538 89.0885 46.6533C88.6751 46.9495 88.1412 47.0977 87.4869 47.0977C87.0442 47.0977 86.6503 47.0195 86.3053 46.8633C85.9635 46.7038 85.6949 46.4873 85.4996 46.2139C85.3043 45.9372 85.2066 45.6393 85.2066 45.3203H86.5445C86.5576 45.571 86.6503 45.763 86.8229 45.8965C86.9954 46.0299 87.2265 46.0967 87.5162 46.0967C87.7864 46.0967 87.9898 46.0462 88.1266 45.9453C88.2665 45.8411 88.3365 45.7061 88.3365 45.54ZM90.702 44.3096C90.702 43.7855 90.8029 43.3184 91.0047 42.9082C91.2065 42.498 91.4962 42.1807 91.8738 41.9561C92.2547 41.7314 92.6958 41.6191 93.1971 41.6191C93.91 41.6191 94.491 41.8372 94.9402 42.2734C95.3927 42.7096 95.645 43.3021 95.6971 44.0508L95.7068 44.4121C95.7068 45.2227 95.4806 45.8737 95.0281 46.3652C94.5757 46.8535 93.9686 47.0977 93.2068 47.0977C92.4451 47.0977 91.8364 46.8535 91.3807 46.3652C90.9282 45.877 90.702 45.2129 90.702 44.373V44.3096ZM92.1131 44.4121C92.1131 44.9134 92.2075 45.2975 92.3963 45.5645C92.5851 45.8281 92.8553 45.96 93.2068 45.96C93.5486 45.96 93.8156 45.8298 94.0076 45.5693C94.1997 45.3057 94.2957 44.8857 94.2957 44.3096C94.2957 43.818 94.1997 43.4372 94.0076 43.167C93.8156 42.8968 93.5454 42.7617 93.1971 42.7617C92.852 42.7617 92.5851 42.8968 92.3963 43.167C92.2075 43.4339 92.1131 43.849 92.1131 44.4121ZM99.6201 44.5244H96.8711V43.3867H99.6201V44.5244ZM106.932 47H105.467V43.9531H102.611V47H101.146V39.8906H102.611V42.7715H105.467V39.8906H106.932V47ZM111.587 46.4629C111.239 46.8861 110.757 47.0977 110.142 47.0977C109.576 47.0977 109.143 46.9349 108.843 46.6094C108.547 46.2839 108.396 45.807 108.389 45.1787V41.7168H109.8V45.1299C109.8 45.68 110.051 45.9551 110.552 45.9551C111.031 45.9551 111.359 45.7891 111.538 45.457V41.7168H112.954V47H111.626L111.587 46.4629ZM116.751 47.0977C115.976 47.0977 115.344 46.86 114.856 46.3848C114.371 45.9095 114.129 45.2764 114.129 44.4854V44.3486C114.129 43.818 114.231 43.3444 114.436 42.9277C114.641 42.5078 114.931 42.1855 115.305 41.9609C115.683 41.7331 116.113 41.6191 116.594 41.6191C117.317 41.6191 117.885 41.847 118.298 42.3027C118.715 42.7585 118.923 43.4046 118.923 44.2412V44.8174H115.559C115.605 45.1624 115.741 45.4391 115.969 45.6475C116.2 45.8558 116.492 45.96 116.843 45.96C117.387 45.96 117.812 45.763 118.118 45.3691L118.811 46.1455C118.6 46.445 118.313 46.6794 117.952 46.8486C117.59 47.0146 117.19 47.0977 116.751 47.0977ZM116.589 42.7617C116.31 42.7617 116.082 42.8561 115.906 43.0449C115.733 43.2337 115.623 43.5039 115.574 43.8555H117.537V43.7432C117.53 43.4307 117.446 43.1898 117.283 43.0205C117.12 42.848 116.889 42.7617 116.589 42.7617Z" fill="#755734"/>
<path d="M45.2776 45.5683C44.3734 45.6446 43.4813 45.8278 42.6202 46.1139C38.8425 47.3994 37.544 48.475 37.544 48.475C37.544 48.475 38.2601 36.1294 38.6405 32.0343C40.1647 15.6593 50.3801 10.9844 52.5208 10.1791C48.8979 6.06302 44.2162 3.0186 38.9844 1.37663C33.7527 -0.265335 28.171 -0.442045 22.8458 0.865704C17.5207 2.17345 12.6558 4.91564 8.77979 8.79429C4.90379 12.6729 2.16493 17.5397 0.86082 22.8657C-0.443288 28.1918 -0.262764 33.7734 1.38278 39.004C3.02832 44.2346 6.07594 48.9142 10.1945 52.5343C14.313 56.1544 19.3449 58.5765 24.7434 59.5374C30.142 60.4983 35.7006 59.9613 40.8153 57.9847C41.0645 57.7879 45.233 54.3461 45.2776 45.5683ZM29.9939 55.4479C29.1854 55.651 28.3956 55.9221 27.6329 56.2585C25.3715 57.4207 24.4717 59.0183 24.4717 59.0183L25.647 46.7908C27.4388 25.6963 34.2228 18.5056 34.2228 18.5056C29.9939 33.2385 29.9939 55.4479 29.9939 55.4479Z" fill="#735633"/>
<path d="M60 29.9908C60.0084 22.8889 57.4892 16.0157 52.8933 10.6015L51.356 46.4026C51.154 49.0548 50.4693 51.1797 49.4094 52.8587C52.7303 50.0455 55.3981 46.5422 57.2271 42.5929C59.0561 38.6436 60.0024 34.3431 60 29.9908V29.9908Z" fill="#735633"/>
</svg>
